<?xml version="1.0" encoding="UTF-8" standalone="no"?>
<!DOCTYPE svg PUBLIC "-//W3C//DTD SVG 1.1//EN" "http://www.w3.org/Graphics/SVG/1.1/DTD/svg11.dtd">
<svg width="100%" height="100%" viewBox="0 0 1675 402" version="1.1" xmlns="http://www.w3.org/2000/svg" xmlns:xlink="http://www.w3.org/1999/xlink" xml:space="preserve" xmlns:serif="http://www.serif.com/" style="fill-rule:evenodd;clip-rule:evenodd;stroke-linejoin:round;stroke-miterlimit:2;">
    <g id="Grouped-Text" serif:id="Grouped Text" transform="matrix(1.16211,0,0,1.16211,253.679,-1352.18)">
        <g id="Snowpack">
            <g transform="matrix(1,0,0,1,375.353,1248.84)">
                <path d="M0,38.632L20.078,38.632C21.747,52.93 28.291,59.471 45.173,59.471C61.598,59.471 68.751,52.473 68.751,42.434C68.751,34.982 64.642,30.115 48.065,27.68L34.221,25.704C11.555,22.508 2.734,14.6 2.734,-3.043C2.734,-22.513 16.578,-36.354 44.716,-36.354C72.855,-36.354 86.699,-22.665 86.699,-1.524L67.077,-1.524C65.708,-14.3 58.712,-20.841 44.26,-20.841C29.813,-20.841 23.421,-14.148 23.421,-4.261C23.421,3.191 26.921,6.996 41.368,8.971L55.212,10.95C77.268,14.143 89.433,22.508 89.433,41.219C89.433,61.447 74.833,74.986 44.716,74.986C14.599,74.986 0,61.751 0,38.632" style="fill:white;fill-rule:nonzero;stroke:white;stroke-width:1.72px;"/>
            </g>
            <g transform="matrix(1,0,0,1,544.647,1214)">
                <path d="M0,108.299L-50.804,29.356L-50.804,108.299L-70.425,108.299L-70.425,0L-48.217,0L2.435,78.943L2.435,0L22.209,0L22.209,108.299L0,108.299Z" style="fill:white;fill-rule:nonzero;stroke:white;stroke-width:1.72px;"/>
            </g>
            <g transform="matrix(1,0,0,1,663.142,1268.15)">
                <path d="M0,-0.002C0,-24.947 -11.257,-38.788 -33.161,-38.788C-54.913,-38.788 -66.17,-24.947 -66.17,-0.002C-66.17,24.943 -54.913,38.784 -33.161,38.784C-11.257,38.784 0,24.943 0,-0.002M-86.851,-0.002C-86.851,-33.008 -67.534,-55.671 -33.161,-55.671C1.37,-55.671 20.687,-33.008 20.687,-0.002C20.687,33.004 1.37,55.669 -33.161,55.669C-67.534,55.669 -86.851,33.004 -86.851,-0.002" style="fill:white;fill-rule:nonzero;stroke:white;stroke-width:1.72px;"/>
            </g>
            <g transform="matrix(1,0,0,1,778.138,1214)">
                <path d="M0,108.299L-20.078,28.748L-40.156,108.299L-65.099,108.299L-95.825,0L-73.464,0L-52.021,83.354L-30.726,0L-9.43,0L11.865,83.354L33.313,0L55.668,0L24.79,108.299L0,108.299Z" style="fill:white;fill-rule:nonzero;stroke:white;stroke-width:1.72px;"/>
            </g>
            <g transform="matrix(1,0,0,1,884.621,1306.79)">
                <path d="M0,-77.269L-23.731,-77.269L-23.731,-39.243L0,-39.243C13.686,-39.243 21.138,-45.176 21.138,-58.256C21.138,-71.184 13.686,-77.269 0,-77.269M2.886,-23.728L-23.731,-23.728L-23.731,15.515L-44.418,15.515L-44.418,-92.784L2.886,-92.784C26.921,-92.784 41.825,-80.462 41.825,-58.256C41.825,-35.895 26.921,-23.728 2.886,-23.728" style="fill:white;fill-rule:nonzero;stroke:white;stroke-width:1.72px;"/>
            </g>
            <g transform="matrix(1,0,0,1,968.434,1303.44)">
                <path d="M0,-70.577L-18.556,-19.621L18.41,-19.621L0,-70.577ZM31.791,18.861L23.579,-3.649L-23.573,-3.649L-31.786,18.861L-53.081,18.861L-12.773,-89.438L12.779,-89.438L53.087,18.861L31.791,18.861Z" style="fill:white;fill-rule:nonzero;stroke:white;stroke-width:1.72px;"/>
            </g>
            <g transform="matrix(1,0,0,1,1016.97,1268.15)">
                <path d="M0,-0.002C0,-33.008 19.317,-55.671 53.69,-55.671C83.503,-55.671 103.733,-38.028 103.733,-14.604L84.112,-14.604C82.285,-28.445 72.55,-38.788 53.69,-38.788C31.938,-38.788 20.681,-24.947 20.681,-0.002C20.681,24.943 31.938,38.784 53.69,38.784C72.246,38.784 82.285,29.05 84.112,13.687L103.733,13.687C103.733,37.567 84.112,55.669 53.69,55.669C19.317,55.669 0,33.004 0,-0.002" style="fill:white;fill-rule:nonzero;stroke:white;stroke-width:1.72px;"/>
            </g>
            <g transform="matrix(1,0,0,1,1197.97,1214)">
                <path d="M0,108.299L-33.003,60.082L-47.912,75.75L-47.912,108.299L-68.599,108.299L-68.599,0L-47.912,0L-47.912,50.804L-1.522,0L22.665,0L-19.469,44.719L24.187,108.299L0,108.299Z" style="fill:white;fill-rule:nonzero;stroke:white;stroke-width:1.72px;"/>
            </g>
        </g>
        <g id="Data" transform="matrix(1,0,0,1,-888.182,137.75)">
            <g transform="matrix(1,0,0,1,1307.65,1306.02)">
                <path d="M0,-75.747L-23.426,-75.747L-23.426,0L0,0C21.442,0 32.09,-12.776 32.09,-37.874C32.09,-62.971 21.442,-75.747 0,-75.747M-1.065,16.276L-44.113,16.276L-44.113,-92.023L-1.065,-92.023C34.677,-92.023 52.777,-71.793 52.777,-37.874C52.777,-3.802 34.677,16.276 -1.065,16.276" style="fill:white;fill-rule:nonzero;"/>
            </g>
            <g transform="matrix(1,0,0,1,1408.95,1303.44)">
                <path d="M0,-70.577L-18.556,-19.621L18.41,-19.621L0,-70.577ZM31.791,18.861L23.578,-3.649L-23.573,-3.649L-31.786,18.861L-53.081,18.861L-12.773,-89.438L12.778,-89.438L53.087,18.861L31.791,18.861Z" style="fill:white;fill-rule:nonzero;"/>
            </g>
            <g transform="matrix(1,0,0,1,1479.84,1214)">
                <path d="M0,108.299L0,16.885L-32.851,16.885L-32.851,0L53.696,0L53.696,16.885L20.687,16.885L20.687,108.299L0,108.299Z" style="fill:white;fill-rule:nonzero;"/>
            </g>
            <g transform="matrix(1,0,0,1,1571.56,1303.44)">
                <path d="M0,-70.577L-18.556,-19.621L18.41,-19.621L0,-70.577ZM31.791,18.861L23.578,-3.649L-23.573,-3.649L-31.786,18.861L-53.081,18.861L-12.773,-89.438L12.779,-89.438L53.087,18.861L31.791,18.861Z" style="fill:white;fill-rule:nonzero;"/>
            </g>
        </g>
    </g>
    <g id="dark" transform="matrix(0.773648,0,0,0.773648,-449.731,-485.368)">
        <g transform="matrix(1,0,0,1,-2.2685,0)">
            <g>
                <g transform="matrix(1.04501,1.22222e-18,1.2637e-18,1,654.109,928.647)">
                    <g>
                        <path d="M0,-46.682L81.63,-159.033L215.479,-9.557L358.996,-230.13L557.365,-8.062L622.459,28.485L673.229,84.499L712.188,183.448L-5.155,183.448L0,-46.682Z" style="fill:white;fill-rule:nonzero;"/>
                    </g>
                </g>
                <g transform="matrix(1.04501,1.22222e-18,1.2637e-18,1,646.352,928.648)">
                    <path d="M0,24.414L73.674,-49.26L111.814,-11.121L208.804,-108.111L307.975,-8.94L358.445,-59.41L398.821,-19.034L444.902,-76.526L454.557,-66.871L505.466,-159.034L566.03,-73.015L585.341,-71.26L623.083,5.104L643.271,11.248L720.067,138.175L720.004,183.885L0,183.448L0,24.414Z" style="fill:rgb(89,129,158);fill-rule:nonzero;"/>
                </g>
            </g>
        </g>
        <g transform="matrix(1.04501,1.22222e-18,1.2637e-18,1,646.454,895.914)">
            <g>
                <path d="M0,172.389L147.348,44.488L239.511,108.438L279.887,76.463L360.036,143.889L433.492,29.195L460.702,29.195L494.056,-43.792L595.873,105.658L637.127,105.658L716.871,216.181L0,216.181L0,172.389Z" style="fill:rgb(47,96,127);fill-rule:nonzero;"/>
            </g>
        </g>
        <g transform="matrix(0.774248,0,0,0.773564,144.086,254.728)">
            <g transform="matrix(2.31016e-17,-0.361659,1.70822,1.03167e-16,-41.8852,1226.89)">
                <rect x="306.12" y="398.264" width="47.054" height="573.08" style="fill:white;"/>
            </g>
            <g transform="matrix(-0.361113,-4.42017e-17,1.27776e-16,-1.0437,765.846,1531.85)">
                <rect x="306.12" y="398.264" width="47.054" height="573.08" style="fill:white;"/>
            </g>
        </g>
    </g>
</svg>
