<?xml version="1.0" encoding="UTF-8" standalone="no"?>
<!DOCTYPE svg PUBLIC "-//W3C//DTD SVG 1.1//EN" "http://www.w3.org/Graphics/SVG/1.1/DTD/svg11.dtd">
<svg width="100%" height="100%" viewBox="0 0 1080 1080" version="1.1" xmlns="http://www.w3.org/2000/svg" xmlns:xlink="http://www.w3.org/1999/xlink" xml:space="preserve" xmlns:serif="http://www.serif.com/" style="fill-rule:evenodd;clip-rule:evenodd;stroke-linejoin:round;stroke-miterlimit:2;">
    <g id="light" transform="matrix(1.44589,0,0,1.44462,-879.077,-736.478)">
        <g transform="matrix(0.95198,0,0,1,650.263,928.647)">
            <g>
                <path d="M0,-46.682L81.63,-159.033L215.479,-9.557L358.996,-230.13L557.365,-8.062L622.459,28.485L673.229,84.499L711.269,180.831L-5.155,183.448L0,-46.682Z" style="fill:rgb(107,156,187);fill-rule:nonzero;"/>
            </g>
        </g>
        <g transform="matrix(0.95198,0,0,1,650.263,945.647)">
            <g>
                <path d="M0,-46.682L81.63,-159.033L215.479,-9.557L358.996,-230.13L557.365,-8.062L622.459,28.485L673.229,84.499L708.339,161.116L1.65,154.55L0,-46.682Z" style="fill:white;fill-rule:nonzero;"/>
            </g>
        </g>
        <g transform="matrix(0.95198,0,0,1,643.196,928.648)">
            <g>
                <path d="M0,24.414L73.674,-49.26L111.814,-11.121L208.804,-108.111L307.975,-8.94L358.445,-59.41L398.821,-19.034L444.902,-76.526L454.557,-66.871L505.466,-159.034L566.03,-73.015L585.341,-71.26L623.083,5.104L643.271,11.248L720.072,138.52L720.072,183.448L0,183.448L0,24.414Z" style="fill:rgb(86,128,160);fill-rule:nonzero;"/>
            </g>
        </g>
        <g transform="matrix(0.95198,0,0,1,645.356,895.914)">
            <g>
                <path d="M0,172.389L147.348,44.488L239.511,108.438L279.887,76.463L360.036,143.889L433.492,29.195L460.702,29.195L494.056,-43.792L595.873,105.658L637.127,105.658L717.819,216.181L0,216.181L0,172.389Z" style="fill:rgb(68,103,148);fill-rule:nonzero;"/>
            </g>
        </g>
        <g>
            <g transform="matrix(2.81904e-17,-0.483607,1.2105,7.78603e-17,152.97,1270.68)">
                <rect x="306.12" y="398.264" width="47.054" height="573.08" style="fill:rgb(45,45,52);"/>
            </g>
            <g transform="matrix(-0.450014,-5.51108e-17,1.0216e-16,-0.834197,793.06,1454.87)">
                <rect x="306.12" y="398.264" width="47.054" height="573.08" style="fill:rgb(45,45,52);"/>
            </g>
        </g>
    </g>
</svg>
